<svg width="512" height="512" viewBox="0 0 512 512" fill="none" xmlns="http://www.w3.org/2000/svg">
<g clip-path="url(#clip0_47_2)">
<rect width="512" height="512" fill="black"/>
<path d="M149.75 160.5V431H65.25V160.5H149.75ZM60.25 90.75C60.25 78.75 64.5833 68.9167 73.25 61.25C81.9167 53.5833 93.1667 49.75 107 49.75C120.833 49.75 132.083 53.5833 140.75 61.25C149.417 68.9167 153.75 78.75 153.75 90.75C153.75 102.75 149.417 112.583 140.75 120.25C132.083 127.917 120.833 131.75 107 131.75C93.1667 131.75 81.9167 127.917 73.25 120.25C64.5833 112.583 60.25 102.75 60.25 90.75ZM453.25 215.75V282.25C453.25 308.417 450.167 331.167 444 350.5C438 369.833 429.333 385.833 418 398.5C406.833 411.167 393.5 420.583 378 426.75C362.5 432.917 345.417 436 326.75 436C311.75 436 297.75 434.083 284.75 430.25C271.75 426.25 260 420.25 249.5 412.25C239.167 404.083 230.25 393.917 222.75 381.75C215.25 369.583 209.5 355.25 205.5 338.75C201.5 322.083 199.5 303.25 199.5 282.25V215.75C199.5 189.417 202.5 166.667 208.5 147.5C214.667 128.167 223.417 112.167 234.75 99.5C246.083 86.8333 259.5 77.4167 275 71.25C290.5 65.0833 307.583 62 326.25 62C341.25 62 355.167 64 368 68C381 71.8333 392.75 77.8333 403.25 86C413.75 94 422.667 104.083 430 116.25C437.5 128.417 443.25 142.833 447.25 159.5C451.25 176 453.25 194.75 453.25 215.75ZM369 292.5V205C369 193.333 368.333 183.167 367 174.5C365.833 165.833 364 158.5 361.5 152.5C359.167 146.5 356.25 141.667 352.75 138C349.25 134.167 345.25 131.417 340.75 129.75C336.417 127.917 331.583 127 326.25 127C319.583 127 313.583 128.417 308.25 131.25C303.083 133.917 298.667 138.25 295 144.25C291.333 150.25 288.5 158.25 286.5 168.25C284.667 178.25 283.75 190.5 283.75 205V292.5C283.75 304.333 284.333 314.667 285.5 323.5C286.833 332.167 288.667 339.583 291 345.75C293.5 351.75 296.5 356.667 300 360.5C303.5 364.167 307.5 366.833 312 368.5C316.5 370.167 321.417 371 326.75 371C333.25 371 339.083 369.667 344.25 367C349.417 364.333 353.833 360 357.5 354C361.333 347.833 364.167 339.75 366 329.75C368 319.583 369 307.167 369 292.5Z" fill="white"/>
</g>
<defs>
<clipPath id="clip0_47_2">
<rect width="512" height="512" fill="white"/>
</clipPath>
</defs>
</svg>
